<svg viewBox="0 0 512 512"  fill="none" xmlns="http://www.w3.org/2000/svg"><circle cx="256" cy="256" r="254.5" fill="#100C30" stroke="#000" stroke-width="3"/><path d="M141.35 369.35c.833 0 1.417.133 1.75.4.367.233.55.717.55 1.45 0 .4-.017.717-.05.95-.133 1.033-.55 3.7-1.25 8-.5 2.9-.817 4.817-.95 5.75-1.267 8.6-2.983 15.383-5.15 20.35-2.133 5-5 7.5-8.6 7.5-1.7 0-3.083-.533-4.15-1.6-1.067-1.033-1.6-2.4-1.6-4.1 0-2.367.933-4.917 2.8-7.65 1.867-2.7 5.367-6.033 10.5-10l.3-1.95c-.567.9-1.317 1.6-2.25 2.1-.9.467-1.8.7-2.7.7-2.067 0-3.717-.75-4.95-2.25s-1.85-3.467-1.85-5.9c0-2.667.617-5.183 1.85-7.55 1.233-2.4 2.867-4.317 4.9-5.75 2.067-1.467 4.25-2.2 6.55-2.2.733 0 1.217.15 1.45.45.267.267.483.767.65 1.5.633-.133 1.367-.2 2.2-.2zm-9 16.85c.767 0 1.5-.467 2.2-1.4.7-.933 1.2-2.267 1.5-4l1.6-8.55c-1.367.033-2.633.567-3.8 1.6-1.167 1-2.1 2.333-2.8 4a13.547 13.547 0 00-1.05 5.3c0 1.033.2 1.8.6 2.3.433.5 1.017.75 1.75.75zm-4.15 22.7c.833 0 1.767-1 2.8-3 1.067-2 2.083-5.183 3.05-9.55-2.567 2.2-4.417 4.183-5.55 5.95-1.133 1.767-1.7 3.317-1.7 4.65 0 .567.1 1.033.3 1.4.233.367.6.55 1.1.55zm22.111-17.65c-1.467 0-2.583-.4-3.35-1.2-.733-.8-1.1-1.85-1.1-3.15 0-1.5.417-2.7 1.25-3.6.867-.9 2.067-1.35 3.6-1.35 1.467 0 2.567.367 3.3 1.1.767.7 1.15 1.75 1.15 3.15 0 1.533-.433 2.767-1.3 3.7-.867.9-2.05 1.35-3.55 1.35zm15.053 0c-2.066 0-3.716-.75-4.95-2.25-1.233-1.5-1.85-3.467-1.85-5.9 0-2.667.617-5.183 1.85-7.55 1.234-2.4 2.867-4.317 4.9-5.75 2.067-1.467 4.25-2.2 6.55-2.2.734 0 1.217.15 1.45.45.267.267.484.767.65 1.5.7-.133 1.434-.2 2.2-.2 1.634 0 2.45.583 2.45 1.75 0 .7-.25 2.367-.75 5-.766 3.833-1.15 6.5-1.15 8 0 .5.117.9.35 1.2.267.3.6.45 1 .45.634 0 1.4-.4 2.3-1.2.9-.833 2.117-2.167 3.65-4 .4-.467.85-.7 1.35-.7.434 0 .767.2 1 .6.267.4.4.95.4 1.65 0 1.333-.316 2.367-.95 3.1-1.366 1.7-2.816 3.133-4.35 4.3-1.533 1.167-3.016 1.75-4.45 1.75-1.1 0-2.116-.367-3.05-1.1-.9-.767-1.583-1.8-2.05-3.1-1.733 2.8-3.916 4.2-6.55 4.2zm1.8-5.05c.734 0 1.434-.433 2.1-1.3.667-.867 1.15-2.017 1.45-3.45l1.85-9.2c-1.4.033-2.7.567-3.9 1.6-1.166 1-2.1 2.333-2.8 4a13.547 13.547 0 00-1.05 5.3c0 1.033.2 1.8.6 2.3.434.5 1.017.75 1.75.75zm34.487-6.35c.433 0 .766.2 1 .6.266.4.4.95.4 1.65 0 1.333-.317 2.367-.95 3.1-1.434 1.767-3 3.217-4.7 4.35-1.667 1.133-3.567 1.7-5.7 1.7-2.934 0-5.117-1.333-6.55-4-1.4-2.667-2.1-6.117-2.1-10.35 0-4.067.516-8.7 1.55-13.9 1.066-5.2 2.616-9.667 4.65-13.4 2.066-3.733 4.516-5.6 7.35-5.6 1.6 0 2.85.75 3.75 2.25.933 1.467 1.4 3.583 1.4 6.35 0 3.967-1.1 8.567-3.3 13.8-2.2 5.233-5.184 10.417-8.95 15.55.233 1.367.616 2.35 1.15 2.95.533.567 1.233.85 2.1.85 1.366 0 2.566-.383 3.6-1.15 1.033-.8 2.35-2.15 3.95-4.05.4-.467.85-.7 1.35-.7zm-6.15-30.9c-.767 0-1.634 1.383-2.6 4.15-.967 2.767-1.817 6.2-2.55 10.3-.734 4.1-1.134 8.033-1.2 11.8 2.366-3.9 4.25-7.8 5.65-11.7 1.4-3.933 2.1-7.517 2.1-10.75 0-2.533-.467-3.8-1.4-3.8zm25.808 30.9c.434 0 .767.2 1 .6.267.4.4.95.4 1.65 0 1.333-.316 2.367-.95 3.1-1.233 1.5-2.983 2.883-5.25 4.15a14.352 14.352 0 01-7.2 1.9c-3.5 0-6.216-.95-8.15-2.85-1.933-1.9-2.9-4.5-2.9-7.8 0-2.3.484-4.433 1.45-6.4.967-2 2.3-3.583 4-4.75 1.734-1.167 3.684-1.75 5.85-1.75 1.934 0 3.484.583 4.65 1.75 1.167 1.133 1.75 2.683 1.75 4.65 0 2.3-.833 4.283-2.5 5.95-1.633 1.633-4.416 2.933-8.35 3.9.834 1.533 2.417 2.3 4.75 2.3 1.5 0 3.2-.517 5.1-1.55a17.15 17.15 0 005-4.15c.4-.467.85-.7 1.35-.7zm-12.6-7.25c-1.233 0-2.283.717-3.15 2.15-.833 1.433-1.25 3.167-1.25 5.2v.1c1.967-.467 3.517-1.167 4.65-2.1 1.134-.933 1.7-2.017 1.7-3.25 0-.633-.183-1.133-.55-1.5-.333-.4-.8-.6-1.4-.6zm37.606 7.25c.433 0 .767.2 1 .6.267.4.4.95.4 1.65 0 1.333-.317 2.367-.95 3.1-1.433 1.767-2.983 3.217-4.65 4.35-1.633 1.133-3.5 1.7-5.6 1.7-1.767 0-3.2-.633-4.3-1.9-1.9 1.233-3.883 1.867-5.95 1.9-.433 6.433-1.417 11.8-2.95 16.1-1.533 4.333-3.783 6.5-6.75 6.5-1.8 0-3.133-.65-4-1.95-.867-1.3-1.3-3.1-1.3-5.4 0-3.267.75-7.083 2.25-11.45 1.5-4.333 3.817-9.117 6.95-14.35 0-4.867-.033-8.25-.1-10.15-.033-.967.35-1.733 1.15-2.3.8-.567 1.8-.85 3-.85.7 0 1.2.15 1.5.45.333.267.517.817.55 1.65 0 .833.017 1.45.05 1.85 1.067-1.333 2.117-2.283 3.15-2.85 1.033-.6 2.133-.9 3.3-.9 1.867 0 3.383.75 4.55 2.25 1.2 1.5 1.8 3.467 1.8 5.9 0 1.767-.283 3.483-.85 5.15a16.83 16.83 0 01-2.35 4.55c.7.2 1.283.3 1.75.3 1.1 0 2.15-.4 3.15-1.2 1-.8 2.283-2.133 3.85-4 .4-.467.85-.7 1.35-.7zm-19.8 6.6c1.2-.267 2.3-.917 3.3-1.95 1.033-1.067 1.85-2.367 2.45-3.9.6-1.567.9-3.2.9-4.9 0-1-.2-1.75-.6-2.25-.4-.533-.933-.8-1.6-.8-1.2 0-2.65 1.267-4.35 3.8-.033 1.467-.05 3.617-.05 6.45 0 1.533-.017 2.717-.05 3.55zm-9.55 22.5c.9 0 1.65-1.967 2.25-5.9.6-3.9.983-8.767 1.15-14.6-1.433 3.333-2.567 6.517-3.4 9.55-.833 3.033-1.25 5.583-1.25 7.65 0 1.067.133 1.883.4 2.45.233.567.517.85.85.85zm30.272-17.7c-1.267 0-2.167-.667-2.7-2-.5-1.333-.75-3.467-.75-6.4 0-4.333.617-8.45 1.85-12.35.3-.967.783-1.667 1.45-2.1.7-.467 1.667-.7 2.9-.7.667 0 1.133.083 1.4.25.267.167.4.483.4.95 0 .533-.25 1.733-.75 3.6-.333 1.333-.6 2.5-.8 3.5-.2 1-.367 2.233-.5 3.7 1.1-2.867 2.333-5.2 3.7-7 1.367-1.8 2.7-3.083 4-3.85 1.333-.767 2.55-1.15 3.65-1.15 2.167 0 3.25 1.083 3.25 3.25 0 .433-.15 1.483-.45 3.15-.267 1.333-.4 2.167-.4 2.5 0 1.167.417 1.75 1.25 1.75.933 0 2.133-.733 3.6-2.2.433-.433.883-.65 1.35-.65.433 0 .767.2 1 .6.267.367.4.867.4 1.5 0 1.233-.333 2.2-1 2.9-.933.967-2.033 1.8-3.3 2.5-1.233.667-2.55 1-3.95 1-1.767 0-3.117-.45-4.05-1.35-.9-.9-1.35-2.117-1.35-3.65 0-.5.05-1 .15-1.5.067-.667.1-1.117.1-1.35 0-.533-.183-.8-.55-.8-.5 0-1.167.567-2 1.7-.8 1.1-1.6 2.567-2.4 4.4a35.915 35.915 0 00-1.95 5.8c-.367 1.567-.8 2.633-1.3 3.2-.467.533-1.217.8-2.25.8zm44.704-15.6c.433 0 .767.217 1 .65.233.433.35.983.35 1.65 0 1.6-.483 2.55-1.45 2.85-2 .7-4.2 1.1-6.6 1.2-.633 2.8-1.883 5.05-3.75 6.75-1.867 1.667-3.983 2.5-6.35 2.5-2 0-3.717-.483-5.15-1.45-1.4-.967-2.467-2.25-3.2-3.85-.733-1.6-1.1-3.333-1.1-5.2 0-2.533.483-4.783 1.45-6.75.967-2 2.3-3.55 4-4.65 1.7-1.133 3.583-1.7 5.65-1.7 2.533 0 4.567.883 6.1 2.65 1.567 1.733 2.483 3.883 2.75 6.45 1.567-.1 3.433-.433 5.6-1 .267-.067.5-.1.7-.1zm-16.4 10.3c1.067 0 1.983-.433 2.75-1.3.8-.867 1.333-2.117 1.6-3.75a7.104 7.104 0 01-2.4-2.75 8.355 8.355 0 01-.8-3.6c0-.533.05-1.067.15-1.6h-.25c-1.333 0-2.45.65-3.35 1.95-.867 1.267-1.3 3.067-1.3 5.4 0 1.833.35 3.233 1.05 4.2.733.967 1.583 1.45 2.55 1.45zm18.809-21.55c-1.4 0-2.45-.317-3.15-.95-.7-.667-1.05-1.583-1.05-2.75s.45-2.133 1.35-2.9c.933-.8 2.083-1.2 3.45-1.2 1.233 0 2.233.3 3 .9.766.6 1.15 1.45 1.15 2.55 0 1.333-.434 2.4-1.3 3.2-.867.767-2.017 1.15-3.45 1.15zm9 15.55c.433 0 .766.217 1 .65.266.4.4.917.4 1.55 0 .767-.117 1.367-.35 1.8-.234.433-.6.817-1.1 1.15-2.334 1.533-5.45 3.65-9.35 6.35-1.3 6.933-2.984 12.383-5.05 16.35-2.067 3.967-4.7 5.95-7.9 5.95-1.734 0-3.117-.533-4.15-1.6-1.067-1.033-1.6-2.4-1.6-4.1 0-2.367.916-4.9 2.75-7.6 1.833-2.667 5.283-5.967 10.35-9.9l.35-2.55c.466-3.2.833-6.35 1.1-9.45.2-1.8.516-4.483.95-8.05.133-.967.5-1.667 1.1-2.1.6-.467 1.516-.7 2.75-.7 1 0 1.65.15 1.95.45.333.3.5.717.5 1.25 0 1.533-.55 5.767-1.65 12.7l-.5 3.45c2.666-2 5.1-3.733 7.3-5.2.433-.267.816-.4 1.15-.4zm-21.8 28.95c.866 0 1.816-.983 2.85-2.95 1.033-1.967 2-5.133 2.9-9.5-2.534 2.167-4.35 4.117-5.45 5.85-1.134 1.767-1.7 3.317-1.7 4.65 0 1.3.466 1.95 1.4 1.95zm42.445-29.05c.433 0 .767.2 1 .6.267.4.4.95.4 1.65 0 1.333-.317 2.367-.95 3.1-1.233 1.5-2.983 2.883-5.25 4.15a14.352 14.352 0 01-7.2 1.9c-3.5 0-6.217-.95-8.15-2.85-1.933-1.9-2.9-4.5-2.9-7.8 0-2.3.483-4.433 1.45-6.4.967-2 2.3-3.583 4-4.75 1.733-1.167 3.683-1.75 5.85-1.75 1.933 0 3.483.583 4.65 1.75 1.167 1.133 1.75 2.683 1.75 4.65 0 2.3-.833 4.283-2.5 5.95-1.633 1.633-4.417 2.933-8.35 3.9.833 1.533 2.417 2.3 4.75 2.3 1.5 0 3.2-.517 5.1-1.55a17.163 17.163 0 005-4.15c.4-.467.85-.7 1.35-.7zm-12.6-7.25c-1.233 0-2.283.717-3.15 2.15-.833 1.433-1.25 3.167-1.25 5.2v.1c1.967-.467 3.517-1.167 4.65-2.1 1.133-.933 1.7-2.017 1.7-3.25 0-.633-.183-1.133-.55-1.5-.333-.4-.8-.6-1.4-.6zm32.229 7.25c.433 0 .766.2 1 .6.266.4.4.95.4 1.65 0 1.333-.317 2.367-.95 3.1-1.434 1.767-3 3.217-4.7 4.35-1.7 1.133-3.65 1.7-5.85 1.7-6.8 0-10.2-4.783-10.2-14.35 0-1.467.05-2.95.15-4.45h-1.95c-1 0-1.684-.183-2.05-.55-.334-.367-.5-.95-.5-1.75 0-1.867.75-2.8 2.25-2.8h2.85c.566-3.667 1.433-7.017 2.6-10.05 1.166-3.033 2.566-5.45 4.2-7.25 1.666-1.8 3.45-2.7 5.35-2.7 1.4 0 2.5.617 3.3 1.85.8 1.233 1.2 2.783 1.2 4.65 0 5.167-2.167 9.667-6.5 13.5h5.6c.533 0 .916.117 1.15.35.233.233.35.667.35 1.3 0 2.3-1.884 3.45-5.65 3.45h-6.1c-.067 1.667-.1 2.967-.1 3.9 0 3.467.4 5.9 1.2 7.3.833 1.4 2.133 2.1 3.9 2.1 1.433 0 2.7-.433 3.8-1.3 1.1-.867 2.4-2.167 3.9-3.9.4-.467.85-.7 1.35-.7zm-8.75-27.7c-.5 0-1.067.633-1.7 1.9-.6 1.233-1.184 2.967-1.75 5.2-.534 2.2-.984 4.65-1.35 7.35 1.966-1.7 3.433-3.6 4.4-5.7 1-2.133 1.5-4.067 1.5-5.8 0-1.967-.367-2.95-1.1-2.95zm14.529 39.1c-1.967 0-3.65-.483-5.05-1.45-1.367-1-2.4-2.3-3.1-3.9-.7-1.6-1.05-3.317-1.05-5.15 0-2.533.466-4.783 1.4-6.75.966-2 2.266-3.55 3.9-4.65 1.633-1.133 3.466-1.7 5.5-1.7 1.966 0 3.65.5 5.05 1.5 1.4.967 2.45 2.25 3.15 3.85.7 1.6 1.05 3.317 1.05 5.15 0 2.533-.484 4.8-1.45 6.8-.967 1.967-2.284 3.517-3.95 4.65-1.634 1.1-3.45 1.65-5.45 1.65zm.55-5.4c1.133 0 2.083-.617 2.85-1.85.8-1.233 1.2-3.033 1.2-5.4 0-1.833-.334-3.217-1-4.15-.667-.933-1.467-1.4-2.4-1.4-1.2 0-2.2.617-3 1.85-.767 1.2-1.15 3-1.15 5.4 0 1.9.333 3.3 1 4.2.666.9 1.5 1.35 2.5 1.35zm22.712 6.5c-1.733 0-3.067-.4-4-1.2-.9-.8-1.35-1.7-1.35-2.7 0-.867.317-1.617.95-2.25s1.567-.95 2.8-.95c.433 0 .933.05 1.5.15l1.35.15a6.156 6.156 0 00-.6-2.45 10.59 10.59 0 00-1.3-2.2 26.994 26.994 0 00-1.5-1.9c-1.033 1.967-2.067 3.6-3.1 4.9a34.5 34.5 0 01-3.3 3.7c-.6.6-1.233.9-1.9.9-.533 0-.967-.183-1.3-.55-.333-.4-.5-.883-.5-1.45 0-.667.233-1.283.7-1.85l.65-.8c1.833-2.267 3.217-4.133 4.15-5.6.6-.967 1.2-2.117 1.8-3.45.633-1.333 1.45-3.15 2.45-5.45.633-1.467 1.95-2.2 3.95-2.2.933 0 1.583.083 1.95.25.367.167.55.433.55.8 0 .2-.067.517-.2.95a7.226 7.226 0 01-.55 1.3c-.6 1.2-.9 2.217-.9 3.05 0 .5.167 1.05.5 1.65.367.6.917 1.35 1.65 2.25 1.067 1.4 1.867 2.6 2.4 3.6.567.967.85 2.033.85 3.2 0 1.4-.333 2.733-1 4a7.795 7.795 0 01-2.7 3c-1.167.767-2.5 1.15-4 1.15z" fill="#fff"/><path d="M175.884 106.687a4.408 4.408 0 00-.051.256c-.051.308-.104.758-.156 1.351-.105 1.182-.206 2.891-.302 5.074-.192 4.363-.362 10.595-.505 18.231-.284 15.271-.455 36.146-.455 58.899 0 34.933.114 55.914.597 68.845.242 6.467.575 10.904 1.03 14.06.455 3.157 1.027 4.996 1.726 6.286l.002.003 3.641 6.827.392.735h-46.345c-.695 0-1.389-.002-2.08-.004-5.105-.014-9.978-.028-13.424.759-1.958.448-3.338 1.131-4.061 2.113-.663.901-.85 2.166-.207 4.027a.715.715 0 01.242.121c.245.19.255.463.256.562l-.002.137c-.003.111-.004.149.047.233.074.125.306.377 1.049.695.733.314 1.903.666 3.763 1.033 7.451 1.469 25.568 3.091 69.492 3.66 56.662.683 123.78.683 149.48-.227h.001l46.166-1.577v-10.407l-26.137-.67-26.624-.683-.746-.019.301-.682 3.41-7.729.002-.004c.886-2.106 1.674-5.412 2.241-9.067.565-3.648.904-7.604.904-10.988V245.696l.298-.132 9.785-4.323.001-.001c14.851-6.525 26.325-23.421 26.325-38.682 0-7.61-3.082-15.933-8.019-23.097-4.935-7.164-11.69-13.119-18.974-16.033l-.004-.002-8.874-3.64-.302-.124-.008-.326-.683-26.624-.67-26.369-80.525-.678c-22.185-.114-42.548-.057-57.477.142-7.465.099-13.569.234-17.861.401-2.147.084-3.835.175-5.012.273-.59.049-1.042.1-1.356.15-.125.02-.221.039-.291.056zm148.502 29.698l-68.153-.058H187.466V127.293l-.113-8.468-.007-.507h.507l68.379-.058h.002l67.828.228.498.001v9.022l.326 8.354.02.52h-.52zm.216 136.033v.196l-.133.144-5.688 6.143-.001.001-5.461 5.916-.148.16h-55.515c-15.528 0-27.27-.014-36.21-.273-8.934-.26-15.106-.765-19.481-1.758-4.389-.997-7.028-2.496-8.83-4.783-1.778-2.256-2.696-5.23-3.772-9.023l-.003-.01-.002-.01c-.296-1.243-.582-3.945-.848-7.751-.267-3.822-.516-8.799-.73-14.619-.427-11.641-.711-26.665-.711-42.6v-.003l.397-56.206.004-.497h137.132v124.973zm32.931-83.758l.005.008.004.008c7.16 13.859 2.343 31.701-10.453 38.219l-.005.002-6.818 3.637-.735.392v-56.735l.735.392 6.815 3.635.006.003c1.888.945 3.978 2.636 5.844 4.531 1.871 1.899 3.551 4.039 4.602 5.908zm-181.754-81.942l.001-.001-.001.001z" fill="#000" stroke="#000"/><path fill="#EA8A8A" d="M187.853 118.818h136.533v17.067H187.853z"/><path d="M192.973 278.391c-6.827-3.413-6.827-39.253-4.891-130.56h136.304l-.853 124.587-11.094 11.947-101.546-.854-12.8-2.56-5.12-2.56z" fill="red" stroke="#000"/><path fill="#EA8A8A" d="M211.746 147.831h47.787v83.627h-47.787z"/><path d="M285.305 192.832c0 2.048 3.185 7.282 7.281 11.378l7.282 7.509-7.282 7.509c-7.281 7.51-9.784 17.522-4.323 17.522 1.593 0 8.419-5.461 15.019-12.288l12.288-12.288-10.923-11.605c-10.923-11.606-19.342-15.019-19.342-7.737z" fill="#000"/><ellipse cx="235.64" cy="230.605" rx="23.893" ry="14.507" fill="#EA8A8A"/><path d="M215.217 198.748c-5.233 5.234-9.557 11.606-9.557 14.109 0 5.461 17.749 23.893 23.211 23.893 6.599 0 4.778-7.054-4.324-16.384l-8.419-8.647 8.419-8.647c4.551-4.779 8.42-9.785 8.42-11.378 0-5.689-8.42-2.276-17.75 7.054zM254.357 208.76c-10.24 22.073-11.605 29.127-5.461 29.127 4.096 0 25.714-43.69 24.121-48.241-3.186-7.965-8.875-2.048-18.66 19.114z" fill="#000"/><path d="M270.626 254.498h-69.12l-5.973-.853-4.267-1.707-3.413-1.707.853 11.947.854 8.533 2.56 5.974 2.56 1.706 3.413 1.707 12.8 2.56H255.266l57.174.853 11.093-11.946-.853-42.667-6.827 5.12-5.12 4.267-5.12 3.413-5.973 3.413-7.68 3.414-6.827 2.56-7.68 2.56-6.827.853z" fill="#BC0000"/><path d="M175.884 106.687a4.408 4.408 0 00-.051.256c-.051.308-.104.758-.156 1.351-.105 1.182-.206 2.891-.302 5.074-.192 4.363-.362 10.595-.505 18.231-.284 15.271-.455 36.146-.455 58.899 0 34.933.114 55.914.597 68.845.242 6.467.575 10.904 1.03 14.06.455 3.157 1.027 4.996 1.726 6.286l.002.003 3.641 6.827.392.735h-46.345c-.695 0-1.389-.002-2.08-.004-5.105-.014-9.978-.028-13.424.759-1.958.448-3.338 1.131-4.061 2.113-.663.901-.85 2.166-.207 4.027a.715.715 0 01.242.121c.245.19.255.463.256.562l-.002.137c-.003.111-.004.149.047.233.074.125.306.377 1.049.695.733.314 1.903.666 3.763 1.033 7.451 1.469 25.568 3.091 69.492 3.66 56.662.683 123.78.683 149.48-.227h.001l46.166-1.577v-10.407l-26.137-.67-26.624-.683-.746-.019.301-.682 3.41-7.729.002-.004c.886-2.106 1.674-5.412 2.241-9.067.565-3.648.904-7.604.904-10.988V245.696l.298-.132 9.785-4.323.001-.001c14.851-6.525 26.325-23.421 26.325-38.682 0-7.61-3.082-15.933-8.019-23.097-4.935-7.164-11.69-13.119-18.974-16.033l-.004-.002-8.874-3.64-.302-.124-.008-.326-.683-26.624-.67-26.369-80.525-.678c-22.185-.114-42.548-.057-57.477.142-7.465.099-13.569.234-17.861.401-2.147.084-3.835.175-5.012.273-.59.049-1.042.1-1.356.15-.125.02-.221.039-.291.056zm148.502 29.698l-68.153-.058H187.466V127.293l-.113-8.468-.007-.507h.507l68.379-.058h.002l67.828.228.498.001v9.022l.326 8.354.02.52h-.52zm.216 136.033v.196l-.133.144-5.688 6.143-.001.001-5.461 5.916-.148.16h-55.515c-15.528 0-27.27-.014-36.21-.273-8.934-.26-15.106-.765-19.481-1.758-4.389-.997-7.028-2.496-8.83-4.783-1.778-2.256-2.696-5.23-3.772-9.023l-.003-.01-.002-.01c-.296-1.243-.582-3.945-.848-7.751-.267-3.822-.516-8.799-.73-14.619-.427-11.641-.711-26.665-.711-42.6v-.003l.397-56.206.004-.497h137.132v124.973zm32.931-83.758l.005.008.004.008c7.16 13.859 2.343 31.701-10.453 38.219l-.005.002-6.818 3.637-.735.392v-56.735l.735.392 6.815 3.635.006.003c1.888.945 3.978 2.636 5.844 4.531 1.871 1.899 3.551 4.039 4.602 5.908zm-181.754-81.942l.001-.001-.001.001z" fill="#000" stroke="#000"/></svg>